<svg width="1451" height="1451" viewBox="0 0 1451 1451" fill="none" xmlns="http://www.w3.org/2000/svg">
<rect opacity="0.05" x="1" y="1" width="161" height="161" stroke="white"/>
<rect opacity="0.05" x="1" y="162" width="161" height="161" stroke="white"/>
<rect opacity="0.05" x="1" y="323" width="161" height="161" stroke="white"/>
<rect opacity="0.05" x="1" y="484" width="161" height="161" stroke="white"/>
<rect opacity="0.05" x="1" y="645" width="161" height="161" stroke="white"/>
<rect opacity="0.05" x="1" y="806" width="161" height="161" stroke="white"/>
<rect opacity="0.05" x="1" y="967" width="161" height="161" stroke="white"/>
<rect opacity="0.05" x="1" y="1128" width="161" height="161" stroke="white"/>
<rect opacity="0.05" x="1" y="1289" width="161" height="161" stroke="white"/>
<rect opacity="0.05" x="162" y="1" width="161" height="161" stroke="white"/>
<rect opacity="0.05" x="162" y="162" width="161" height="161" stroke="white"/>
<rect opacity="0.05" x="162" y="323" width="161" height="161" stroke="white"/>
<rect opacity="0.05" x="162" y="484" width="161" height="161" stroke="white"/>
<rect opacity="0.05" x="162" y="645" width="161" height="161" stroke="white"/>
<rect opacity="0.05" x="162" y="806" width="161" height="161" stroke="white"/>
<rect opacity="0.05" x="162" y="967" width="161" height="161" stroke="white"/>
<rect opacity="0.05" x="162" y="1128" width="161" height="161" stroke="white"/>
<rect opacity="0.05" x="162" y="1289" width="161" height="161" stroke="white"/>
<rect opacity="0.05" x="323" y="1" width="161" height="161" stroke="white"/>
<rect opacity="0.05" x="323" y="162" width="161" height="161" stroke="white"/>
<rect opacity="0.05" x="323" y="323" width="161" height="161" stroke="white"/>
<rect opacity="0.05" x="323" y="484" width="161" height="161" stroke="white"/>
<rect opacity="0.05" x="323" y="645" width="161" height="161" stroke="white"/>
<rect opacity="0.05" x="323" y="806" width="161" height="161" stroke="white"/>
<rect opacity="0.05" x="323" y="967" width="161" height="161" stroke="white"/>
<rect opacity="0.05" x="323" y="1128" width="161" height="161" stroke="white"/>
<rect opacity="0.05" x="323" y="1289" width="161" height="161" stroke="white"/>
<rect opacity="0.05" x="484" y="1" width="161" height="161" stroke="white"/>
<rect opacity="0.05" x="484" y="162" width="161" height="161" stroke="white"/>
<rect opacity="0.05" x="484" y="323" width="161" height="161" stroke="white"/>
<rect opacity="0.05" x="484" y="484" width="161" height="161" stroke="white"/>
<rect opacity="0.05" x="484" y="645" width="161" height="161" stroke="white"/>
<rect opacity="0.05" x="484" y="806" width="161" height="161" stroke="white"/>
<rect opacity="0.05" x="484" y="967" width="161" height="161" stroke="white"/>
<rect opacity="0.05" x="484" y="1128" width="161" height="161" stroke="white"/>
<rect opacity="0.05" x="484" y="1289" width="161" height="161" stroke="white"/>
<rect opacity="0.05" x="645" y="1" width="161" height="161" stroke="white"/>
<rect opacity="0.05" x="645" y="162" width="161" height="161" stroke="white"/>
<rect opacity="0.05" x="645" y="323" width="161" height="161" stroke="white"/>
<rect opacity="0.05" x="645" y="484" width="161" height="161" stroke="white"/>
<rect opacity="0.05" x="645" y="645" width="161" height="161" stroke="white"/>
<rect opacity="0.05" x="645" y="806" width="161" height="161" stroke="white"/>
<rect opacity="0.05" x="645" y="967" width="161" height="161" stroke="white"/>
<rect opacity="0.05" x="645" y="1128" width="161" height="161" stroke="white"/>
<rect opacity="0.05" x="645" y="1289" width="161" height="161" stroke="white"/>
<rect opacity="0.05" x="806" y="1" width="161" height="161" stroke="white"/>
<rect opacity="0.05" x="806" y="162" width="161" height="161" stroke="white"/>
<rect opacity="0.05" x="806" y="323" width="161" height="161" stroke="white"/>
<rect opacity="0.05" x="806" y="484" width="161" height="161" stroke="white"/>
<rect opacity="0.05" x="806" y="645" width="161" height="161" stroke="white"/>
<rect opacity="0.05" x="806" y="806" width="161" height="161" stroke="white"/>
<rect opacity="0.05" x="806" y="967" width="161" height="161" stroke="white"/>
<rect opacity="0.05" x="806" y="1128" width="161" height="161" stroke="white"/>
<rect opacity="0.05" x="806" y="1289" width="161" height="161" stroke="white"/>
<rect opacity="0.05" x="967" y="1" width="161" height="161" stroke="white"/>
<rect opacity="0.05" x="967" y="162" width="161" height="161" stroke="white"/>
<rect opacity="0.05" x="967" y="323" width="161" height="161" stroke="white"/>
<rect opacity="0.05" x="967" y="484" width="161" height="161" stroke="white"/>
<rect opacity="0.05" x="967" y="645" width="161" height="161" stroke="white"/>
<rect opacity="0.05" x="967" y="806" width="161" height="161" stroke="white"/>
<rect opacity="0.05" x="967" y="967" width="161" height="161" stroke="white"/>
<rect opacity="0.05" x="967" y="1128" width="161" height="161" stroke="white"/>
<rect opacity="0.05" x="967" y="1289" width="161" height="161" stroke="white"/>
<rect opacity="0.05" x="1128" y="1" width="161" height="161" stroke="white"/>
<rect opacity="0.05" x="1128" y="162" width="161" height="161" stroke="white"/>
<rect opacity="0.05" x="1128" y="323" width="161" height="161" stroke="white"/>
<rect opacity="0.05" x="1128" y="484" width="161" height="161" stroke="white"/>
<rect opacity="0.05" x="1128" y="645" width="161" height="161" stroke="white"/>
<rect opacity="0.05" x="1128" y="806" width="161" height="161" stroke="white"/>
<rect opacity="0.05" x="1128" y="967" width="161" height="161" stroke="white"/>
<rect opacity="0.05" x="1128" y="1128" width="161" height="161" stroke="white"/>
<rect opacity="0.05" x="1128" y="1289" width="161" height="161" stroke="white"/>
<rect opacity="0.05" x="1289" y="1" width="161" height="161" stroke="white"/>
<rect opacity="0.05" x="1289" y="162" width="161" height="161" stroke="white"/>
<rect opacity="0.05" x="1289" y="323" width="161" height="161" stroke="white"/>
<rect opacity="0.05" x="1289" y="484" width="161" height="161" stroke="white"/>
<rect opacity="0.05" x="1289" y="645" width="161" height="161" stroke="white"/>
<rect opacity="0.05" x="1289" y="806" width="161" height="161" stroke="white"/>
<rect opacity="0.05" x="1289" y="967" width="161" height="161" stroke="white"/>
<rect opacity="0.05" x="1289" y="1128" width="161" height="161" stroke="white"/>
<rect opacity="0.05" x="1289" y="1289" width="161" height="161" stroke="white"/>
</svg>
